<svg xmlns="http://www.w3.org/2000/svg" viewBox="0 0 760 170" width="760" height="170" font-family="Segoe UI, Arial, sans-serif"><rect x="0" y="0" width="760" height="170" fill="#ffffff"/><text x="380.0" y="28" text-anchor="middle" font-size="16" font-weight="600" fill="#2b6cb0">Hook Lifecycle Flow</text><rect x="20" y="55" width="150" height="70" rx="10" fill="#eef3fb" stroke="#2b6cb0" stroke-width="2"/><text x="95.0" y="87.0" text-anchor="middle" font-size="13" fill="#1a202c">Event</text><text x="95.0" y="103.0" text-anchor="middle" font-size="13" fill="#1a202c">(PreToolUse)</text><line x1="174" y1="90.0" x2="202" y2="90.0" stroke="#4a5568" stroke-width="2" marker-end="url(#arrow)"/><rect x="210" y="55" width="150" height="70" rx="10" fill="#eef3fb" stroke="#2b6cb0" stroke-width="2"/><text x="285.0" y="95.0" text-anchor="middle" font-size="13" fill="#1a202c">Hook Handler</text><line x1="364" y1="90.0" x2="392" y2="90.0" stroke="#4a5568" stroke-width="2" marker-end="url(#arrow)"/><rect x="400" y="55" width="150" height="70" rx="10" fill="#eef3fb" stroke="#2b6cb0" stroke-width="2"/><text x="475.0" y="87.0" text-anchor="middle" font-size="13" fill="#1a202c">Allow / Block /</text><text x="475.0" y="103.0" text-anchor="middle" font-size="13" fill="#1a202c">Modify</text><line x1="554" y1="90.0" x2="582" y2="90.0" stroke="#4a5568" stroke-width="2" marker-end="url(#arrow)"/><rect x="590" y="55" width="150" height="70" rx="10" fill="#eef3fb" stroke="#2b6cb0" stroke-width="2"/><text x="665.0" y="87.0" text-anchor="middle" font-size="13" fill="#1a202c">Continue</text><text x="665.0" y="103.0" text-anchor="middle" font-size="13" fill="#1a202c">Execution</text><defs><marker id="arrow" markerWidth="8" markerHeight="8" refX="6" refY="4" orient="auto"><path d="M0,0 L8,4 L0,8 z" fill="#4a5568"/></marker></defs></svg>